<svg width="36" height="36" viewBox="0 0 36 36" fill="none" xmlns="http://www.w3.org/2000/svg">
    <circle cx="18" cy="18" r="16" fill="#899EFF"/>
    <path d="M21.264 10.816a3.741 3.741 0 1 1-7.483 0 3.741 3.741 0 0 1 7.482 0z" fill="#fff"/>
    <path d="m28.221 19.612 2.203-5.56a.71.71 0 0 0-.385-.909.71.71 0 0 0-.909.385l-2.343 5.84c-.734.069-1.992.069-2.657-.28-.454-.21-.944-1.4-1.154-1.924a14.54 14.54 0 0 0-.28-.629c-.349-.7-1.118-1.538-2.692-1.538H15.25c-1.223 0-2.168.629-2.832 1.818l-.14.28c-.629 1.153-1.258 2.377-1.503 3.286-.245 1.013-.805 3.706-.805 3.811-.14.77.35 1.538 1.119 1.678.105.035.21.07.28.07.664 0 1.258-.49 1.398-1.154 0-.035.525-2.727.77-3.6.104-.35.314-.875.594-1.4l-.175 6.224c0 .525.385.944.91.944h5.314c.524 0 .909-.42.909-.944l-.21-6.433c.454.839 1.084 1.713 2.028 2.168 1.783.839 4.335.524 4.615.49a1.42 1.42 0 0 0 1.224-1.61c0-.454-.21-.768-.525-1.013h.001z" fill="#fff"/>
</svg>